solid OpenSCAD_Model
  facet normal 2.99178e-017 -0.969698 -0.244306
    outer loop
      vertex 94.256 -46.2794 1.15426e-014
      vertex 109.6 -60.388 56
      vertex -109.6 -60.388 56
    endloop
  endfacet
  facet normal 2.99178e-017 -0.969698 -0.244306
    outer loop
      vertex -94.256 -46.2794 -1.15426e-014
      vertex 94.256 -46.2794 1.15426e-014
      vertex -109.6 -60.388 56
    endloop
  endfacet
  facet normal -1.22461e-016 0 1
    outer loop
      vertex 105.587 -56.3757 56
      vertex 109.6 -60.388 56
      vertex 109.6 60.388 56
    endloop
  endfacet
  facet normal -1.22461e-016 0 1
    outer loop
      vertex 105.587 -56.3757 56
      vertex -105.587 -56.3757 56
      vertex -109.6 -60.388 56
    endloop
  endfacet
  facet normal -1.22461e-016 0 1
    outer loop
      vertex -109.6 -60.388 56
      vertex 109.6 -60.388 56
      vertex 105.587 -56.3757 56
    endloop
  endfacet
  facet normal -1.22461e-016 0 1
    outer loop
      vertex -105.587 60.388 56
      vertex -109.6 -60.388 56
      vertex -105.587 -56.3757 56
    endloop
  endfacet
  facet normal -1.22461e-016 0 1
    outer loop
      vertex -109.6 60.388 56
      vertex -109.6 -60.388 56
      vertex -105.587 60.388 56
    endloop
  endfacet
  facet normal -1.22461e-016 0 1
    outer loop
      vertex 105.587 60.388 56
      vertex 105.587 -56.3757 56
      vertex 109.6 60.388 56
    endloop
  endfacet
  facet normal 0.964452 0 -0.26426
    outer loop
      vertex 109.6 60.388 56
      vertex 109.6 -60.388 56
      vertex 94.256 -46.2794 1.15426e-014
    endloop
  endfacet
  facet normal 0.964452 0 -0.26426
    outer loop
      vertex 94.256 60.388 1.15426e-014
      vertex 109.6 60.388 56
      vertex 94.256 -46.2794 1.15426e-014
    endloop
  endfacet
  facet normal 1.22461e-016 0 -1
    outer loop
      vertex 94.256 -46.2794 1.15426e-014
      vertex -94.256 -46.2794 -1.15426e-014
      vertex 94.256 60.388 1.15426e-014
    endloop
  endfacet
  facet normal 1.22461e-016 0 -1
    outer loop
      vertex 94.256 60.388 1.15426e-014
      vertex -94.256 -46.2794 -1.15426e-014
      vertex -94.256 60.388 -1.15426e-014
    endloop
  endfacet
  facet normal -0.964452 0 -0.26426
    outer loop
      vertex -94.256 -46.2794 -1.15426e-014
      vertex -109.6 -60.388 56
      vertex -94.256 60.388 -1.15426e-014
    endloop
  endfacet
  facet normal -0.964452 0 -0.26426
    outer loop
      vertex -94.256 60.388 -1.15426e-014
      vertex -109.6 -60.388 56
      vertex -109.6 60.388 56
    endloop
  endfacet
  facet normal 0 1 0
    outer loop
      vertex 91.9522 60.388 5
      vertex 94.256 60.388 1.15426e-014
      vertex -91.9522 60.388 5
    endloop
  endfacet
  facet normal 0 1 0
    outer loop
      vertex -94.256 60.388 -1.15426e-014
      vertex -109.6 60.388 56
      vertex -91.9522 60.388 5
    endloop
  endfacet
  facet normal 0 1 0
    outer loop
      vertex -94.256 60.388 -1.15426e-014
      vertex -91.9522 60.388 5
      vertex 94.256 60.388 1.15426e-014
    endloop
  endfacet
  facet normal 0 1 0
    outer loop
      vertex 94.256 60.388 1.15426e-014
      vertex 91.9522 60.388 5
      vertex 105.587 60.388 56
    endloop
  endfacet
  facet normal 0 1 0
    outer loop
      vertex 94.256 60.388 1.15426e-014
      vertex 105.587 60.388 56
      vertex 109.6 60.388 56
    endloop
  endfacet
  facet normal 0 1 0
    outer loop
      vertex -91.9522 60.388 5
      vertex -109.6 60.388 56
      vertex -105.587 60.388 56
    endloop
  endfacet
  facet normal 0.966072 0 0.258272
    outer loop
      vertex -91.9522 60.388 5
      vertex -105.587 60.388 56
      vertex -105.587 -56.3757 56
    endloop
  endfacet
  facet normal 0.966072 0 0.258272
    outer loop
      vertex -91.9522 -43.8806 5
      vertex -91.9522 60.388 5
      vertex -105.587 -56.3757 56
    endloop
  endfacet
  facet normal -2.91413e-017 0.971274 0.237965
    outer loop
      vertex -91.9522 -43.8806 5
      vertex -105.587 -56.3757 56
      vertex 91.9522 -43.8806 5
    endloop
  endfacet
  facet normal -2.91413e-017 0.971274 0.237965
    outer loop
      vertex 91.9522 -43.8806 5
      vertex -105.587 -56.3757 56
      vertex 105.587 -56.3757 56
    endloop
  endfacet
  facet normal -0.966072 0 0.258272
    outer loop
      vertex 91.9522 60.388 5
      vertex 91.9522 -43.8806 5
      vertex 105.587 60.388 56
    endloop
  endfacet
  facet normal -0.966072 0 0.258272
    outer loop
      vertex 105.587 60.388 56
      vertex 91.9522 -43.8806 5
      vertex 105.587 -56.3757 56
    endloop
  endfacet
  facet normal -1.22461e-016 0 1
    outer loop
      vertex -91.9522 -43.8806 5
      vertex 91.9522 -43.8806 5
      vertex 91.9522 60.388 5
    endloop
  endfacet
  facet normal -1.22461e-016 0 1
    outer loop
      vertex -91.9522 60.388 5
      vertex -91.9522 -43.8806 5
      vertex 91.9522 60.388 5
    endloop
  endfacet
endsolid OpenSCAD_Model
