solid OpenSCAD_Model
  facet normal -1 0 0
    outer loop
      vertex -109.6 -97.776 -1.5
      vertex -109.6 -97.776 1.5
      vertex -109.6 97.776 -1.5
    endloop
  endfacet
  facet normal -1 0 0
    outer loop
      vertex -109.6 97.776 -1.5
      vertex -109.6 -97.776 1.5
      vertex -109.6 97.776 1.5
    endloop
  endfacet
  facet normal -0.951057 -0.309017 0
    outer loop
      vertex -109.6 -97.776 -1.5
      vertex -109.027 -99.5394 -1.5
      vertex -109.6 -97.776 1.5
    endloop
  endfacet
  facet normal -0.951057 -0.309017 0
    outer loop
      vertex -109.6 -97.776 1.5
      vertex -109.027 -99.5394 -1.5
      vertex -109.027 -99.5394 1.5
    endloop
  endfacet
  facet normal 0 0 -1
    outer loop
      vertex -109.6 -97.776 -1.5
      vertex -109.6 97.776 -1.5
      vertex -109.027 -99.5394 -1.5
    endloop
  endfacet
  facet normal 0 0 -1
    outer loop
      vertex -109.027 -99.5394 -1.5
      vertex -109.6 97.776 -1.5
      vertex -109.027 99.5394 -1.5
    endloop
  endfacet
  facet normal 0 0 -1
    outer loop
      vertex -109.027 -99.5394 -1.5
      vertex -109.027 99.5394 -1.5
      vertex -107.527 100.629 -1.5
    endloop
  endfacet
  facet normal 0 0 -1
    outer loop
      vertex -109.027 -99.5394 -1.5
      vertex -107.527 100.629 -1.5
      vertex -106.6 100.629 -1.5
    endloop
  endfacet
  facet normal 0 0 -1
    outer loop
      vertex -106.6 100.629 -1.5
      vertex -106.6 100.776 -1.5
      vertex 106.6 100.776 -1.5
    endloop
  endfacet
  facet normal 0 0 -1
    outer loop
      vertex -106.6 100.629 -1.5
      vertex 106.6 100.776 -1.5
      vertex -109.027 -99.5394 -1.5
    endloop
  endfacet
  facet normal 0 0 -1
    outer loop
      vertex -109.027 -99.5394 -1.5
      vertex 106.6 100.776 -1.5
      vertex 106.6 100.629 -1.5
    endloop
  endfacet
  facet normal 0 0 -1
    outer loop
      vertex -109.027 -99.5394 -1.5
      vertex 106.6 100.629 -1.5
      vertex 107.527 100.629 -1.5
    endloop
  endfacet
  facet normal 0 0 -1
    outer loop
      vertex -109.027 -99.5394 -1.5
      vertex 107.527 100.629 -1.5
      vertex 109.027 99.5394 -1.5
    endloop
  endfacet
  facet normal 0 0 -1
    outer loop
      vertex -109.027 -99.5394 -1.5
      vertex 109.027 99.5394 -1.5
      vertex 109.6 97.776 -1.5
    endloop
  endfacet
  facet normal 0 0 -1
    outer loop
      vertex -109.027 -99.5394 -1.5
      vertex 109.6 97.776 -1.5
      vertex 109.6 -97.776 -1.5
    endloop
  endfacet
  facet normal 0 0 -1
    outer loop
      vertex -109.027 -99.5394 -1.5
      vertex 109.6 -97.776 -1.5
      vertex 109.027 -99.5394 -1.5
    endloop
  endfacet
  facet normal 0 0 -1
    outer loop
      vertex -109.027 -99.5394 -1.5
      vertex 109.027 -99.5394 -1.5
      vertex 107.527 -100.629 -1.5
    endloop
  endfacet
  facet normal 0 0 -1
    outer loop
      vertex -109.027 -99.5394 -1.5
      vertex 107.527 -100.629 -1.5
      vertex 106.6 -100.629 -1.5
    endloop
  endfacet
  facet normal 0 0 -1
    outer loop
      vertex -109.027 -99.5394 -1.5
      vertex 106.6 -100.629 -1.5
      vertex 106.6 -100.776 -1.5
    endloop
  endfacet
  facet normal 0 0 -1
    outer loop
      vertex -106.6 -100.629 -1.5
      vertex 106.6 -100.776 -1.5
      vertex -106.6 -100.776 -1.5
    endloop
  endfacet
  facet normal 0 0 -1
    outer loop
      vertex -109.027 -99.5394 -1.5
      vertex 106.6 -100.776 -1.5
      vertex -106.6 -100.629 -1.5
    endloop
  endfacet
  facet normal 0 0 -1
    outer loop
      vertex -107.527 -100.629 -1.5
      vertex -109.027 -99.5394 -1.5
      vertex -106.6 -100.629 -1.5
    endloop
  endfacet
  facet normal -0.951057 0.309017 0
    outer loop
      vertex -109.6 97.776 -1.5
      vertex -109.6 97.776 1.5
      vertex -109.027 99.5394 -1.5
    endloop
  endfacet
  facet normal -0.951057 0.309017 0
    outer loop
      vertex -109.027 99.5394 -1.5
      vertex -109.6 97.776 1.5
      vertex -109.027 99.5394 1.5
    endloop
  endfacet
  facet normal 0 0 1
    outer loop
      vertex -109.6 97.776 1.5
      vertex -109.6 -97.776 1.5
      vertex -109.027 -99.5394 1.5
    endloop
  endfacet
  facet normal 0 0 1
    outer loop
      vertex -106.6 -100.629 1.5
      vertex -109.6 97.776 1.5
      vertex -107.527 -100.629 1.5
    endloop
  endfacet
  facet normal 0 0 1
    outer loop
      vertex -107.527 -100.629 1.5
      vertex -109.6 97.776 1.5
      vertex -109.027 -99.5394 1.5
    endloop
  endfacet
  facet normal 0 0 1
    outer loop
      vertex 106.6 -100.776 1.5
      vertex -109.6 97.776 1.5
      vertex -106.6 -100.629 1.5
    endloop
  endfacet
  facet normal 0 0 1
    outer loop
      vertex 106.6 -100.776 1.5
      vertex -106.6 -100.629 1.5
      vertex -106.6 -100.776 1.5
    endloop
  endfacet
  facet normal 0 0 1
    outer loop
      vertex 106.6 -100.629 1.5
      vertex -109.6 97.776 1.5
      vertex 106.6 -100.776 1.5
    endloop
  endfacet
  facet normal 0 0 1
    outer loop
      vertex 107.527 -100.629 1.5
      vertex -109.6 97.776 1.5
      vertex 106.6 -100.629 1.5
    endloop
  endfacet
  facet normal 0 0 1
    outer loop
      vertex 109.027 -99.5394 1.5
      vertex -109.6 97.776 1.5
      vertex 107.527 -100.629 1.5
    endloop
  endfacet
  facet normal 0 0 1
    outer loop
      vertex 109.6 -97.776 1.5
      vertex -109.6 97.776 1.5
      vertex 109.027 -99.5394 1.5
    endloop
  endfacet
  facet normal 0 0 1
    outer loop
      vertex 109.6 97.776 1.5
      vertex -109.6 97.776 1.5
      vertex 109.6 -97.776 1.5
    endloop
  endfacet
  facet normal 0 0 1
    outer loop
      vertex 109.027 99.5394 1.5
      vertex -109.6 97.776 1.5
      vertex 109.6 97.776 1.5
    endloop
  endfacet
  facet normal 0 0 1
    outer loop
      vertex 107.527 100.629 1.5
      vertex -109.6 97.776 1.5
      vertex 109.027 99.5394 1.5
    endloop
  endfacet
  facet normal 0 0 1
    outer loop
      vertex 106.6 100.629 1.5
      vertex -109.6 97.776 1.5
      vertex 107.527 100.629 1.5
    endloop
  endfacet
  facet normal 0 0 1
    outer loop
      vertex 106.6 100.776 1.5
      vertex -109.6 97.776 1.5
      vertex 106.6 100.629 1.5
    endloop
  endfacet
  facet normal 0 0 1
    outer loop
      vertex -106.6 100.629 1.5
      vertex -109.6 97.776 1.5
      vertex 106.6 100.776 1.5
    endloop
  endfacet
  facet normal 0 0 1
    outer loop
      vertex -106.6 100.776 1.5
      vertex -106.6 100.629 1.5
      vertex 106.6 100.776 1.5
    endloop
  endfacet
  facet normal 0 0 1
    outer loop
      vertex -109.027 99.5394 1.5
      vertex -109.6 97.776 1.5
      vertex -107.527 100.629 1.5
    endloop
  endfacet
  facet normal 0 0 1
    outer loop
      vertex -106.6 100.629 1.5
      vertex -107.527 100.629 1.5
      vertex -109.6 97.776 1.5
    endloop
  endfacet
  facet normal -0.587785 -0.809017 0
    outer loop
      vertex -109.027 -99.5394 1.5
      vertex -109.027 -99.5394 -1.5
      vertex -107.527 -100.629 -1.5
    endloop
  endfacet
  facet normal -0.587785 -0.809017 0
    outer loop
      vertex -107.527 -100.629 1.5
      vertex -109.027 -99.5394 1.5
      vertex -107.527 -100.629 -1.5
    endloop
  endfacet
  facet normal 0 -1 0
    outer loop
      vertex -107.527 -100.629 1.5
      vertex -107.527 -100.629 -1.5
      vertex -106.6 -100.629 -1.5
    endloop
  endfacet
  facet normal 0 -1 0
    outer loop
      vertex -106.6 -100.629 1.5
      vertex -107.527 -100.629 1.5
      vertex -106.6 -100.629 -1.5
    endloop
  endfacet
  facet normal -1 0 0
    outer loop
      vertex -106.6 -100.776 -1.5
      vertex -106.6 -100.776 1.5
      vertex -106.6 -100.629 -1.5
    endloop
  endfacet
  facet normal -1 0 0
    outer loop
      vertex -106.6 -100.629 -1.5
      vertex -106.6 -100.776 1.5
      vertex -106.6 -100.629 1.5
    endloop
  endfacet
  facet normal 0 -1 0
    outer loop
      vertex -106.6 -100.776 1.5
      vertex -106.6 -100.776 -1.5
      vertex 106.6 -100.776 -1.5
    endloop
  endfacet
  facet normal 0 -1 0
    outer loop
      vertex 106.6 -100.776 1.5
      vertex -106.6 -100.776 1.5
      vertex 106.6 -100.776 -1.5
    endloop
  endfacet
  facet normal 1 0 0
    outer loop
      vertex 106.6 -100.776 1.5
      vertex 106.6 -100.776 -1.5
      vertex 106.6 -100.629 -1.5
    endloop
  endfacet
  facet normal 1 0 0
    outer loop
      vertex 106.6 -100.629 1.5
      vertex 106.6 -100.776 1.5
      vertex 106.6 -100.629 -1.5
    endloop
  endfacet
  facet normal 0 -1 0
    outer loop
      vertex 106.6 -100.629 1.5
      vertex 106.6 -100.629 -1.5
      vertex 107.527 -100.629 -1.5
    endloop
  endfacet
  facet normal 0 -1 0
    outer loop
      vertex 107.527 -100.629 1.5
      vertex 106.6 -100.629 1.5
      vertex 107.527 -100.629 -1.5
    endloop
  endfacet
  facet normal 0.587785 -0.809017 0
    outer loop
      vertex 107.527 -100.629 1.5
      vertex 107.527 -100.629 -1.5
      vertex 109.027 -99.5394 -1.5
    endloop
  endfacet
  facet normal 0.587785 -0.809017 0
    outer loop
      vertex 109.027 -99.5394 1.5
      vertex 107.527 -100.629 1.5
      vertex 109.027 -99.5394 -1.5
    endloop
  endfacet
  facet normal 0.951057 -0.309017 0
    outer loop
      vertex 109.027 -99.5394 1.5
      vertex 109.027 -99.5394 -1.5
      vertex 109.6 -97.776 -1.5
    endloop
  endfacet
  facet normal 0.951057 -0.309017 0
    outer loop
      vertex 109.6 -97.776 1.5
      vertex 109.027 -99.5394 1.5
      vertex 109.6 -97.776 -1.5
    endloop
  endfacet
  facet normal 1 0 0
    outer loop
      vertex 109.6 -97.776 1.5
      vertex 109.6 -97.776 -1.5
      vertex 109.6 97.776 -1.5
    endloop
  endfacet
  facet normal 1 0 0
    outer loop
      vertex 109.6 97.776 1.5
      vertex 109.6 -97.776 1.5
      vertex 109.6 97.776 -1.5
    endloop
  endfacet
  facet normal 0.951057 0.309017 0
    outer loop
      vertex 109.6 97.776 -1.5
      vertex 109.027 99.5394 -1.5
      vertex 109.027 99.5394 1.5
    endloop
  endfacet
  facet normal 0.951057 0.309017 0
    outer loop
      vertex 109.6 97.776 1.5
      vertex 109.6 97.776 -1.5
      vertex 109.027 99.5394 1.5
    endloop
  endfacet
  facet normal 0.587785 0.809017 0
    outer loop
      vertex 107.527 100.629 -1.5
      vertex 107.527 100.629 1.5
      vertex 109.027 99.5394 -1.5
    endloop
  endfacet
  facet normal 0.587785 0.809017 0
    outer loop
      vertex 109.027 99.5394 -1.5
      vertex 107.527 100.629 1.5
      vertex 109.027 99.5394 1.5
    endloop
  endfacet
  facet normal 0 1 0
    outer loop
      vertex 106.6 100.629 -1.5
      vertex 106.6 100.629 1.5
      vertex 107.527 100.629 -1.5
    endloop
  endfacet
  facet normal 0 1 0
    outer loop
      vertex 107.527 100.629 -1.5
      vertex 106.6 100.629 1.5
      vertex 107.527 100.629 1.5
    endloop
  endfacet
  facet normal 1 0 0
    outer loop
      vertex 106.6 100.629 1.5
      vertex 106.6 100.629 -1.5
      vertex 106.6 100.776 -1.5
    endloop
  endfacet
  facet normal 1 0 0
    outer loop
      vertex 106.6 100.776 1.5
      vertex 106.6 100.629 1.5
      vertex 106.6 100.776 -1.5
    endloop
  endfacet
  facet normal 0 1 0
    outer loop
      vertex -106.6 100.776 -1.5
      vertex -106.6 100.776 1.5
      vertex 106.6 100.776 -1.5
    endloop
  endfacet
  facet normal 0 1 0
    outer loop
      vertex 106.6 100.776 -1.5
      vertex -106.6 100.776 1.5
      vertex 106.6 100.776 1.5
    endloop
  endfacet
  facet normal -1 0 0
    outer loop
      vertex -106.6 100.629 -1.5
      vertex -106.6 100.629 1.5
      vertex -106.6 100.776 -1.5
    endloop
  endfacet
  facet normal -1 0 0
    outer loop
      vertex -106.6 100.776 -1.5
      vertex -106.6 100.629 1.5
      vertex -106.6 100.776 1.5
    endloop
  endfacet
  facet normal 0 1 0
    outer loop
      vertex -107.527 100.629 -1.5
      vertex -107.527 100.629 1.5
      vertex -106.6 100.629 -1.5
    endloop
  endfacet
  facet normal 0 1 0
    outer loop
      vertex -106.6 100.629 -1.5
      vertex -107.527 100.629 1.5
      vertex -106.6 100.629 1.5
    endloop
  endfacet
  facet normal -0.587785 0.809017 0
    outer loop
      vertex -109.027 99.5394 -1.5
      vertex -109.027 99.5394 1.5
      vertex -107.527 100.629 -1.5
    endloop
  endfacet
  facet normal -0.587785 0.809017 0
    outer loop
      vertex -107.527 100.629 -1.5
      vertex -109.027 99.5394 1.5
      vertex -107.527 100.629 1.5
    endloop
  endfacet
endsolid OpenSCAD_Model
