solid OpenSCAD_Model
  facet normal -1 0 0
    outer loop
      vertex -109.6 -97.776 -1.5
      vertex -109.6 -97.776 1.5
      vertex -109.6 97.776 -1.5
    endloop
  endfacet
  facet normal -1 0 0
    outer loop
      vertex -109.6 97.776 -1.5
      vertex -109.6 -97.776 1.5
      vertex -109.6 97.776 1.5
    endloop
  endfacet
  facet normal -0.951057 -0.309017 0
    outer loop
      vertex -109.6 -97.776 -1.5
      vertex -109.027 -99.5394 -1.5
      vertex -109.6 -97.776 1.5
    endloop
  endfacet
  facet normal -0.951057 -0.309017 0
    outer loop
      vertex -109.6 -97.776 1.5
      vertex -109.027 -99.5394 -1.5
      vertex -109.027 -99.5394 1.5
    endloop
  endfacet
  facet normal 0 0 -1
    outer loop
      vertex -109.6 -97.776 -1.5
      vertex -109.6 97.776 -1.5
      vertex -109.027 -99.5394 -1.5
    endloop
  endfacet
  facet normal 0 0 -1
    outer loop
      vertex -109.027 -99.5394 -1.5
      vertex -109.6 97.776 -1.5
      vertex -109.027 99.5394 -1.5
    endloop
  endfacet
  facet normal 0 0 -1
    outer loop
      vertex -109.027 -99.5394 -1.5
      vertex -109.027 99.5394 -1.5
      vertex -107.527 100.629 -1.5
    endloop
  endfacet
  facet normal 0 0 -1
    outer loop
      vertex -109.027 -99.5394 -1.5
      vertex -107.527 100.629 -1.5
      vertex -106.6 100.629 -1.5
    endloop
  endfacet
  facet normal 0 0 -1
    outer loop
      vertex -106.6 100.629 -1.5
      vertex -106.6 100.776 -1.5
      vertex 106.6 100.776 -1.5
    endloop
  endfacet
  facet normal 0 0 -1
    outer loop
      vertex 68.1847 -33.556 -1.5
      vertex 109.6 97.776 -1.5
      vertex 109.6 -97.776 -1.5
    endloop
  endfacet
  facet normal 0 0 -1
    outer loop
      vertex -109.027 -99.5394 -1.5
      vertex 109.6 -97.776 -1.5
      vertex 109.027 -99.5394 -1.5
    endloop
  endfacet
  facet normal 0 0 -1
    outer loop
      vertex -109.027 -99.5394 -1.5
      vertex 109.027 -99.5394 -1.5
      vertex 107.527 -100.629 -1.5
    endloop
  endfacet
  facet normal 0 0 -1
    outer loop
      vertex -109.027 -99.5394 -1.5
      vertex 107.527 -100.629 -1.5
      vertex 106.6 -100.629 -1.5
    endloop
  endfacet
  facet normal 0 0 -1
    outer loop
      vertex -109.027 -99.5394 -1.5
      vertex 106.6 -100.629 -1.5
      vertex 106.6 -100.776 -1.5
    endloop
  endfacet
  facet normal 0 0 -1
    outer loop
      vertex -106.6 -100.629 -1.5
      vertex 106.6 -100.776 -1.5
      vertex -106.6 -100.776 -1.5
    endloop
  endfacet
  facet normal 0 0 -1
    outer loop
      vertex -109.027 -99.5394 -1.5
      vertex 106.6 -100.776 -1.5
      vertex -106.6 -100.629 -1.5
    endloop
  endfacet
  facet normal 0 0 -1
    outer loop
      vertex 66.3 -34.84 -1.5
      vertex -109.027 -99.5394 -1.5
      vertex -66.3 -34.84 -1.5
    endloop
  endfacet
  facet normal 0 0 -1
    outer loop
      vertex -106.6 100.629 -1.5
      vertex -68.34 32.76 -1.5
      vertex -109.027 -99.5394 -1.5
    endloop
  endfacet
  facet normal 0 0 -1
    outer loop
      vertex -68.34 32.76 -1.5
      vertex -68.34 -32.76 -1.5
      vertex -109.027 -99.5394 -1.5
    endloop
  endfacet
  facet normal 0 0 -1
    outer loop
      vertex -68.34 -32.76 -1.5
      vertex -68.1847 -33.556 -1.5
      vertex -109.027 -99.5394 -1.5
    endloop
  endfacet
  facet normal 0 0 -1
    outer loop
      vertex -68.1847 -33.556 -1.5
      vertex -67.7425 -34.2308 -1.5
      vertex -109.027 -99.5394 -1.5
    endloop
  endfacet
  facet normal 0 0 -1
    outer loop
      vertex -67.7425 -34.2308 -1.5
      vertex -67.0807 -34.6817 -1.5
      vertex -109.027 -99.5394 -1.5
    endloop
  endfacet
  facet normal 0 0 -1
    outer loop
      vertex -67.0807 -34.6817 -1.5
      vertex -66.3 -34.84 -1.5
      vertex -109.027 -99.5394 -1.5
    endloop
  endfacet
  facet normal 0 0 -1
    outer loop
      vertex -66.3 34.84 -1.5
      vertex 106.6 100.776 -1.5
      vertex 106.6 100.629 -1.5
    endloop
  endfacet
  facet normal 0 0 -1
    outer loop
      vertex -109.027 -99.5394 -1.5
      vertex 66.3 -34.84 -1.5
      vertex 109.6 -97.776 -1.5
    endloop
  endfacet
  facet normal 0 0 -1
    outer loop
      vertex -66.3 34.84 -1.5
      vertex 106.6 100.629 -1.5
      vertex 107.527 100.629 -1.5
    endloop
  endfacet
  facet normal 0 0 -1
    outer loop
      vertex 66.3 -34.84 -1.5
      vertex 67.0807 -34.6817 -1.5
      vertex 109.6 -97.776 -1.5
    endloop
  endfacet
  facet normal 0 0 -1
    outer loop
      vertex -66.3 34.84 -1.5
      vertex 107.527 100.629 -1.5
      vertex 109.027 99.5394 -1.5
    endloop
  endfacet
  facet normal 0 0 -1
    outer loop
      vertex 67.0807 -34.6817 -1.5
      vertex 67.7425 -34.2308 -1.5
      vertex 109.6 -97.776 -1.5
    endloop
  endfacet
  facet normal 0 0 -1
    outer loop
      vertex 68.34 -32.76 -1.5
      vertex 109.6 97.776 -1.5
      vertex 68.1847 -33.556 -1.5
    endloop
  endfacet
  facet normal 0 0 -1
    outer loop
      vertex 67.7425 -34.2308 -1.5
      vertex 68.1847 -33.556 -1.5
      vertex 109.6 -97.776 -1.5
    endloop
  endfacet
  facet normal 0 0 -1
    outer loop
      vertex -66.3 34.84 -1.5
      vertex 109.027 99.5394 -1.5
      vertex 109.6 97.776 -1.5
    endloop
  endfacet
  facet normal 0 0 -1
    outer loop
      vertex 68.1847 33.556 -1.5
      vertex 109.6 97.776 -1.5
      vertex 68.34 32.76 -1.5
    endloop
  endfacet
  facet normal 0 0 -1
    outer loop
      vertex 68.34 32.76 -1.5
      vertex 109.6 97.776 -1.5
      vertex 68.34 -32.76 -1.5
    endloop
  endfacet
  facet normal 0 0 -1
    outer loop
      vertex 67.7425 34.2308 -1.5
      vertex 109.6 97.776 -1.5
      vertex 68.1847 33.556 -1.5
    endloop
  endfacet
  facet normal 0 0 -1
    outer loop
      vertex 67.0807 34.6817 -1.5
      vertex 109.6 97.776 -1.5
      vertex 67.7425 34.2308 -1.5
    endloop
  endfacet
  facet normal 0 0 -1
    outer loop
      vertex 66.3 34.84 -1.5
      vertex 109.6 97.776 -1.5
      vertex 67.0807 34.6817 -1.5
    endloop
  endfacet
  facet normal 0 0 -1
    outer loop
      vertex -66.3 34.84 -1.5
      vertex 109.6 97.776 -1.5
      vertex 66.3 34.84 -1.5
    endloop
  endfacet
  facet normal 0 0 -1
    outer loop
      vertex -106.6 100.629 -1.5
      vertex 106.6 100.776 -1.5
      vertex -66.3 34.84 -1.5
    endloop
  endfacet
  facet normal 0 0 -1
    outer loop
      vertex -106.6 100.629 -1.5
      vertex -66.3 34.84 -1.5
      vertex -67.0807 34.6817 -1.5
    endloop
  endfacet
  facet normal 0 0 -1
    outer loop
      vertex -106.6 100.629 -1.5
      vertex -67.0807 34.6817 -1.5
      vertex -67.7425 34.2308 -1.5
    endloop
  endfacet
  facet normal 0 0 -1
    outer loop
      vertex -106.6 100.629 -1.5
      vertex -67.7425 34.2308 -1.5
      vertex -68.1847 33.556 -1.5
    endloop
  endfacet
  facet normal 0 0 -1
    outer loop
      vertex -106.6 100.629 -1.5
      vertex -68.1847 33.556 -1.5
      vertex -68.34 32.76 -1.5
    endloop
  endfacet
  facet normal 0 0 -1
    outer loop
      vertex -107.527 -100.629 -1.5
      vertex -109.027 -99.5394 -1.5
      vertex -106.6 -100.629 -1.5
    endloop
  endfacet
  facet normal -0.951057 0.309017 0
    outer loop
      vertex -109.6 97.776 -1.5
      vertex -109.6 97.776 1.5
      vertex -109.027 99.5394 -1.5
    endloop
  endfacet
  facet normal -0.951057 0.309017 0
    outer loop
      vertex -109.027 99.5394 -1.5
      vertex -109.6 97.776 1.5
      vertex -109.027 99.5394 1.5
    endloop
  endfacet
  facet normal 0 0 1
    outer loop
      vertex -109.6 97.776 1.5
      vertex -109.6 -97.776 1.5
      vertex -109.027 -99.5394 1.5
    endloop
  endfacet
  facet normal 0 0 1
    outer loop
      vertex -106.6 -100.629 1.5
      vertex -109.6 97.776 1.5
      vertex -107.527 -100.629 1.5
    endloop
  endfacet
  facet normal 0 0 1
    outer loop
      vertex -107.527 -100.629 1.5
      vertex -109.6 97.776 1.5
      vertex -109.027 -99.5394 1.5
    endloop
  endfacet
  facet normal 0 0 1
    outer loop
      vertex -68.34 -32.76 1.5
      vertex -109.6 97.776 1.5
      vertex -106.6 -100.629 1.5
    endloop
  endfacet
  facet normal 0 0 1
    outer loop
      vertex 106.6 -100.776 1.5
      vertex -106.6 -100.629 1.5
      vertex -106.6 -100.776 1.5
    endloop
  endfacet
  facet normal 0 0 1
    outer loop
      vertex 66.3 -34.84 1.5
      vertex -66.3 -34.84 1.5
      vertex 106.6 -100.776 1.5
    endloop
  endfacet
  facet normal 0 0 1
    outer loop
      vertex 109.027 99.5394 1.5
      vertex -109.6 97.776 1.5
      vertex 109.6 97.776 1.5
    endloop
  endfacet
  facet normal 0 0 1
    outer loop
      vertex 107.527 100.629 1.5
      vertex -109.6 97.776 1.5
      vertex 109.027 99.5394 1.5
    endloop
  endfacet
  facet normal 0 0 1
    outer loop
      vertex 106.6 100.629 1.5
      vertex -109.6 97.776 1.5
      vertex 107.527 100.629 1.5
    endloop
  endfacet
  facet normal 0 0 1
    outer loop
      vertex 106.6 100.776 1.5
      vertex -109.6 97.776 1.5
      vertex 106.6 100.629 1.5
    endloop
  endfacet
  facet normal 0 0 1
    outer loop
      vertex -106.6 100.629 1.5
      vertex -109.6 97.776 1.5
      vertex 106.6 100.776 1.5
    endloop
  endfacet
  facet normal 0 0 1
    outer loop
      vertex -106.6 100.776 1.5
      vertex -106.6 100.629 1.5
      vertex 106.6 100.776 1.5
    endloop
  endfacet
  facet normal 0 0 1
    outer loop
      vertex -109.027 99.5394 1.5
      vertex -109.6 97.776 1.5
      vertex -107.527 100.629 1.5
    endloop
  endfacet
  facet normal 0 0 1
    outer loop
      vertex -68.1847 -33.556 1.5
      vertex -68.34 -32.76 1.5
      vertex -106.6 -100.629 1.5
    endloop
  endfacet
  facet normal 0 0 1
    outer loop
      vertex -68.34 32.76 1.5
      vertex -109.6 97.776 1.5
      vertex -68.34 -32.76 1.5
    endloop
  endfacet
  facet normal 0 0 1
    outer loop
      vertex -68.1847 33.556 1.5
      vertex -109.6 97.776 1.5
      vertex -68.34 32.76 1.5
    endloop
  endfacet
  facet normal 0 0 1
    outer loop
      vertex -67.7425 34.2308 1.5
      vertex -109.6 97.776 1.5
      vertex -68.1847 33.556 1.5
    endloop
  endfacet
  facet normal 0 0 1
    outer loop
      vertex -67.0807 34.6817 1.5
      vertex -109.6 97.776 1.5
      vertex -67.7425 34.2308 1.5
    endloop
  endfacet
  facet normal 0 0 1
    outer loop
      vertex -66.3 34.84 1.5
      vertex -109.6 97.776 1.5
      vertex -67.0807 34.6817 1.5
    endloop
  endfacet
  facet normal 0 0 1
    outer loop
      vertex 109.6 97.776 1.5
      vertex -109.6 97.776 1.5
      vertex 66.3 34.84 1.5
    endloop
  endfacet
  facet normal 0 0 1
    outer loop
      vertex 109.6 97.776 1.5
      vertex 66.3 34.84 1.5
      vertex 67.0807 34.6817 1.5
    endloop
  endfacet
  facet normal 0 0 1
    outer loop
      vertex 109.6 97.776 1.5
      vertex 67.0807 34.6817 1.5
      vertex 67.7425 34.2308 1.5
    endloop
  endfacet
  facet normal 0 0 1
    outer loop
      vertex 109.6 97.776 1.5
      vertex 68.1847 33.556 1.5
      vertex 109.6 -97.776 1.5
    endloop
  endfacet
  facet normal 0 0 1
    outer loop
      vertex 109.6 97.776 1.5
      vertex 67.7425 34.2308 1.5
      vertex 68.1847 33.556 1.5
    endloop
  endfacet
  facet normal 0 0 1
    outer loop
      vertex 68.1847 33.556 1.5
      vertex 68.34 32.76 1.5
      vertex 109.6 -97.776 1.5
    endloop
  endfacet
  facet normal 0 0 1
    outer loop
      vertex 68.34 -32.76 1.5
      vertex 68.1847 -33.556 1.5
      vertex 109.6 -97.776 1.5
    endloop
  endfacet
  facet normal 0 0 1
    outer loop
      vertex 68.1847 -33.556 1.5
      vertex 67.7425 -34.2308 1.5
      vertex 109.6 -97.776 1.5
    endloop
  endfacet
  facet normal 0 0 1
    outer loop
      vertex 67.7425 -34.2308 1.5
      vertex 67.0807 -34.6817 1.5
      vertex 109.6 -97.776 1.5
    endloop
  endfacet
  facet normal 0 0 1
    outer loop
      vertex 68.34 32.76 1.5
      vertex 68.34 -32.76 1.5
      vertex 109.6 -97.776 1.5
    endloop
  endfacet
  facet normal 0 0 1
    outer loop
      vertex 67.0807 -34.6817 1.5
      vertex 66.3 -34.84 1.5
      vertex 109.6 -97.776 1.5
    endloop
  endfacet
  facet normal 0 0 1
    outer loop
      vertex 106.6 -100.776 1.5
      vertex -66.3 -34.84 1.5
      vertex -106.6 -100.629 1.5
    endloop
  endfacet
  facet normal 0 0 1
    outer loop
      vertex -66.3 -34.84 1.5
      vertex -67.0807 -34.6817 1.5
      vertex -106.6 -100.629 1.5
    endloop
  endfacet
  facet normal 0 0 1
    outer loop
      vertex -67.0807 -34.6817 1.5
      vertex -67.7425 -34.2308 1.5
      vertex -106.6 -100.629 1.5
    endloop
  endfacet
  facet normal 0 0 1
    outer loop
      vertex -67.7425 -34.2308 1.5
      vertex -68.1847 -33.556 1.5
      vertex -106.6 -100.629 1.5
    endloop
  endfacet
  facet normal 0 0 1
    outer loop
      vertex -106.6 100.629 1.5
      vertex -107.527 100.629 1.5
      vertex -109.6 97.776 1.5
    endloop
  endfacet
  facet normal 0 0 1
    outer loop
      vertex 66.3 -34.84 1.5
      vertex 109.027 -99.5394 1.5
      vertex 109.6 -97.776 1.5
    endloop
  endfacet
  facet normal 0 0 1
    outer loop
      vertex 66.3 -34.84 1.5
      vertex 107.527 -100.629 1.5
      vertex 109.027 -99.5394 1.5
    endloop
  endfacet
  facet normal 0 0 1
    outer loop
      vertex 66.3 -34.84 1.5
      vertex 106.6 -100.629 1.5
      vertex 107.527 -100.629 1.5
    endloop
  endfacet
  facet normal 0 0 1
    outer loop
      vertex 66.3 -34.84 1.5
      vertex 106.6 -100.776 1.5
      vertex 106.6 -100.629 1.5
    endloop
  endfacet
  facet normal 0 0 1
    outer loop
      vertex -66.3 34.84 1.5
      vertex 66.3 34.84 1.5
      vertex -109.6 97.776 1.5
    endloop
  endfacet
  facet normal -0.587785 -0.809017 0
    outer loop
      vertex -109.027 -99.5394 1.5
      vertex -109.027 -99.5394 -1.5
      vertex -107.527 -100.629 -1.5
    endloop
  endfacet
  facet normal -0.587785 -0.809017 0
    outer loop
      vertex -107.527 -100.629 1.5
      vertex -109.027 -99.5394 1.5
      vertex -107.527 -100.629 -1.5
    endloop
  endfacet
  facet normal 0 -1 0
    outer loop
      vertex -107.527 -100.629 1.5
      vertex -107.527 -100.629 -1.5
      vertex -106.6 -100.629 -1.5
    endloop
  endfacet
  facet normal 0 -1 0
    outer loop
      vertex -106.6 -100.629 1.5
      vertex -107.527 -100.629 1.5
      vertex -106.6 -100.629 -1.5
    endloop
  endfacet
  facet normal -1 0 0
    outer loop
      vertex -106.6 -100.776 -1.5
      vertex -106.6 -100.776 1.5
      vertex -106.6 -100.629 -1.5
    endloop
  endfacet
  facet normal -1 0 0
    outer loop
      vertex -106.6 -100.629 -1.5
      vertex -106.6 -100.776 1.5
      vertex -106.6 -100.629 1.5
    endloop
  endfacet
  facet normal 0 -1 0
    outer loop
      vertex -106.6 -100.776 1.5
      vertex -106.6 -100.776 -1.5
      vertex 106.6 -100.776 -1.5
    endloop
  endfacet
  facet normal 0 -1 0
    outer loop
      vertex 106.6 -100.776 1.5
      vertex -106.6 -100.776 1.5
      vertex 106.6 -100.776 -1.5
    endloop
  endfacet
  facet normal 1 0 0
    outer loop
      vertex 106.6 -100.776 1.5
      vertex 106.6 -100.776 -1.5
      vertex 106.6 -100.629 -1.5
    endloop
  endfacet
  facet normal 1 0 0
    outer loop
      vertex 106.6 -100.629 1.5
      vertex 106.6 -100.776 1.5
      vertex 106.6 -100.629 -1.5
    endloop
  endfacet
  facet normal 0 -1 0
    outer loop
      vertex 106.6 -100.629 1.5
      vertex 106.6 -100.629 -1.5
      vertex 107.527 -100.629 -1.5
    endloop
  endfacet
  facet normal 0 -1 0
    outer loop
      vertex 107.527 -100.629 1.5
      vertex 106.6 -100.629 1.5
      vertex 107.527 -100.629 -1.5
    endloop
  endfacet
  facet normal 0.587785 -0.809017 0
    outer loop
      vertex 107.527 -100.629 1.5
      vertex 107.527 -100.629 -1.5
      vertex 109.027 -99.5394 -1.5
    endloop
  endfacet
  facet normal 0.587785 -0.809017 0
    outer loop
      vertex 109.027 -99.5394 1.5
      vertex 107.527 -100.629 1.5
      vertex 109.027 -99.5394 -1.5
    endloop
  endfacet
  facet normal 0.951057 -0.309017 0
    outer loop
      vertex 109.027 -99.5394 1.5
      vertex 109.027 -99.5394 -1.5
      vertex 109.6 -97.776 -1.5
    endloop
  endfacet
  facet normal 0.951057 -0.309017 0
    outer loop
      vertex 109.6 -97.776 1.5
      vertex 109.027 -99.5394 1.5
      vertex 109.6 -97.776 -1.5
    endloop
  endfacet
  facet normal 1 0 0
    outer loop
      vertex 109.6 -97.776 1.5
      vertex 109.6 -97.776 -1.5
      vertex 109.6 97.776 -1.5
    endloop
  endfacet
  facet normal 1 0 0
    outer loop
      vertex 109.6 97.776 1.5
      vertex 109.6 -97.776 1.5
      vertex 109.6 97.776 -1.5
    endloop
  endfacet
  facet normal 0.951057 0.309017 0
    outer loop
      vertex 109.6 97.776 -1.5
      vertex 109.027 99.5394 -1.5
      vertex 109.027 99.5394 1.5
    endloop
  endfacet
  facet normal 0.951057 0.309017 0
    outer loop
      vertex 109.6 97.776 1.5
      vertex 109.6 97.776 -1.5
      vertex 109.027 99.5394 1.5
    endloop
  endfacet
  facet normal 0.587785 0.809017 0
    outer loop
      vertex 107.527 100.629 -1.5
      vertex 107.527 100.629 1.5
      vertex 109.027 99.5394 -1.5
    endloop
  endfacet
  facet normal 0.587785 0.809017 0
    outer loop
      vertex 109.027 99.5394 -1.5
      vertex 107.527 100.629 1.5
      vertex 109.027 99.5394 1.5
    endloop
  endfacet
  facet normal 0 1 0
    outer loop
      vertex 106.6 100.629 -1.5
      vertex 106.6 100.629 1.5
      vertex 107.527 100.629 -1.5
    endloop
  endfacet
  facet normal 0 1 0
    outer loop
      vertex 107.527 100.629 -1.5
      vertex 106.6 100.629 1.5
      vertex 107.527 100.629 1.5
    endloop
  endfacet
  facet normal 1 0 0
    outer loop
      vertex 106.6 100.629 1.5
      vertex 106.6 100.629 -1.5
      vertex 106.6 100.776 -1.5
    endloop
  endfacet
  facet normal 1 0 0
    outer loop
      vertex 106.6 100.776 1.5
      vertex 106.6 100.629 1.5
      vertex 106.6 100.776 -1.5
    endloop
  endfacet
  facet normal 0 1 0
    outer loop
      vertex -106.6 100.776 -1.5
      vertex -106.6 100.776 1.5
      vertex 106.6 100.776 -1.5
    endloop
  endfacet
  facet normal 0 1 0
    outer loop
      vertex 106.6 100.776 -1.5
      vertex -106.6 100.776 1.5
      vertex 106.6 100.776 1.5
    endloop
  endfacet
  facet normal -1 0 0
    outer loop
      vertex -106.6 100.629 -1.5
      vertex -106.6 100.629 1.5
      vertex -106.6 100.776 -1.5
    endloop
  endfacet
  facet normal -1 0 0
    outer loop
      vertex -106.6 100.776 -1.5
      vertex -106.6 100.629 1.5
      vertex -106.6 100.776 1.5
    endloop
  endfacet
  facet normal 0 1 0
    outer loop
      vertex -107.527 100.629 -1.5
      vertex -107.527 100.629 1.5
      vertex -106.6 100.629 -1.5
    endloop
  endfacet
  facet normal 0 1 0
    outer loop
      vertex -106.6 100.629 -1.5
      vertex -107.527 100.629 1.5
      vertex -106.6 100.629 1.5
    endloop
  endfacet
  facet normal -0.587785 0.809017 0
    outer loop
      vertex -109.027 99.5394 -1.5
      vertex -109.027 99.5394 1.5
      vertex -107.527 100.629 -1.5
    endloop
  endfacet
  facet normal -0.587785 0.809017 0
    outer loop
      vertex -107.527 100.629 -1.5
      vertex -109.027 99.5394 1.5
      vertex -107.527 100.629 1.5
    endloop
  endfacet
  facet normal 1 0 0
    outer loop
      vertex -68.34 32.76 -1.5
      vertex -68.34 32.76 1.5
      vertex -68.34 -32.76 1.5
    endloop
  endfacet
  facet normal 1 0 0
    outer loop
      vertex -68.34 -32.76 -1.5
      vertex -68.34 32.76 -1.5
      vertex -68.34 -32.76 1.5
    endloop
  endfacet
  facet normal 0.981497 -0.191477 0
    outer loop
      vertex -68.1847 33.556 -1.5
      vertex -68.1847 33.556 1.5
      vertex -68.34 32.76 1.5
    endloop
  endfacet
  facet normal 0.981497 -0.191477 0
    outer loop
      vertex -68.34 32.76 -1.5
      vertex -68.1847 33.556 -1.5
      vertex -68.34 32.76 1.5
    endloop
  endfacet
  facet normal 0.836401 -0.548117 0
    outer loop
      vertex -67.7425 34.2308 -1.5
      vertex -67.7425 34.2308 1.5
      vertex -68.1847 33.556 1.5
    endloop
  endfacet
  facet normal 0.836401 -0.548117 0
    outer loop
      vertex -68.1847 33.556 -1.5
      vertex -67.7425 34.2308 -1.5
      vertex -68.1847 33.556 1.5
    endloop
  endfacet
  facet normal 0.563033 -0.826435 0
    outer loop
      vertex -67.0807 34.6817 -1.5
      vertex -67.0807 34.6817 1.5
      vertex -67.7425 34.2308 1.5
    endloop
  endfacet
  facet normal 0.563033 -0.826435 0
    outer loop
      vertex -67.7425 34.2308 -1.5
      vertex -67.0807 34.6817 -1.5
      vertex -67.7425 34.2308 1.5
    endloop
  endfacet
  facet normal 0.198766 -0.980047 0
    outer loop
      vertex -66.3 34.84 -1.5
      vertex -66.3 34.84 1.5
      vertex -67.0807 34.6817 1.5
    endloop
  endfacet
  facet normal 0.198766 -0.980047 0
    outer loop
      vertex -67.0807 34.6817 -1.5
      vertex -66.3 34.84 -1.5
      vertex -67.0807 34.6817 1.5
    endloop
  endfacet
  facet normal 0 -1 0
    outer loop
      vertex 66.3 34.84 -1.5
      vertex 66.3 34.84 1.5
      vertex -66.3 34.84 1.5
    endloop
  endfacet
  facet normal 0 -1 0
    outer loop
      vertex -66.3 34.84 -1.5
      vertex 66.3 34.84 -1.5
      vertex -66.3 34.84 1.5
    endloop
  endfacet
  facet normal -0.198766 -0.980047 0
    outer loop
      vertex 67.0807 34.6817 -1.5
      vertex 67.0807 34.6817 1.5
      vertex 66.3 34.84 1.5
    endloop
  endfacet
  facet normal -0.198766 -0.980047 0
    outer loop
      vertex 66.3 34.84 -1.5
      vertex 67.0807 34.6817 -1.5
      vertex 66.3 34.84 1.5
    endloop
  endfacet
  facet normal -0.563033 -0.826435 0
    outer loop
      vertex 67.7425 34.2308 -1.5
      vertex 67.7425 34.2308 1.5
      vertex 67.0807 34.6817 1.5
    endloop
  endfacet
  facet normal -0.563033 -0.826435 0
    outer loop
      vertex 67.0807 34.6817 -1.5
      vertex 67.7425 34.2308 -1.5
      vertex 67.0807 34.6817 1.5
    endloop
  endfacet
  facet normal -0.836401 -0.548117 0
    outer loop
      vertex 68.1847 33.556 1.5
      vertex 67.7425 34.2308 1.5
      vertex 68.1847 33.556 -1.5
    endloop
  endfacet
  facet normal -0.836401 -0.548117 0
    outer loop
      vertex 68.1847 33.556 -1.5
      vertex 67.7425 34.2308 1.5
      vertex 67.7425 34.2308 -1.5
    endloop
  endfacet
  facet normal -0.981497 -0.191477 0
    outer loop
      vertex 68.34 32.76 1.5
      vertex 68.1847 33.556 1.5
      vertex 68.34 32.76 -1.5
    endloop
  endfacet
  facet normal -0.981497 -0.191477 0
    outer loop
      vertex 68.34 32.76 -1.5
      vertex 68.1847 33.556 1.5
      vertex 68.1847 33.556 -1.5
    endloop
  endfacet
  facet normal -1 0 0
    outer loop
      vertex 68.34 32.76 1.5
      vertex 68.34 32.76 -1.5
      vertex 68.34 -32.76 1.5
    endloop
  endfacet
  facet normal -1 0 0
    outer loop
      vertex 68.34 -32.76 1.5
      vertex 68.34 32.76 -1.5
      vertex 68.34 -32.76 -1.5
    endloop
  endfacet
  facet normal -0.981497 0.191477 0
    outer loop
      vertex 68.34 -32.76 1.5
      vertex 68.34 -32.76 -1.5
      vertex 68.1847 -33.556 1.5
    endloop
  endfacet
  facet normal -0.981497 0.191477 0
    outer loop
      vertex 68.1847 -33.556 1.5
      vertex 68.34 -32.76 -1.5
      vertex 68.1847 -33.556 -1.5
    endloop
  endfacet
  facet normal -0.836401 0.548117 0
    outer loop
      vertex 68.1847 -33.556 1.5
      vertex 68.1847 -33.556 -1.5
      vertex 67.7425 -34.2308 1.5
    endloop
  endfacet
  facet normal -0.836401 0.548117 0
    outer loop
      vertex 67.7425 -34.2308 1.5
      vertex 68.1847 -33.556 -1.5
      vertex 67.7425 -34.2308 -1.5
    endloop
  endfacet
  facet normal -0.563033 0.826435 0
    outer loop
      vertex 67.7425 -34.2308 1.5
      vertex 67.7425 -34.2308 -1.5
      vertex 67.0807 -34.6817 1.5
    endloop
  endfacet
  facet normal -0.563033 0.826435 0
    outer loop
      vertex 67.0807 -34.6817 1.5
      vertex 67.7425 -34.2308 -1.5
      vertex 67.0807 -34.6817 -1.5
    endloop
  endfacet
  facet normal -0.198766 0.980047 0
    outer loop
      vertex 67.0807 -34.6817 1.5
      vertex 67.0807 -34.6817 -1.5
      vertex 66.3 -34.84 1.5
    endloop
  endfacet
  facet normal -0.198766 0.980047 0
    outer loop
      vertex 66.3 -34.84 1.5
      vertex 67.0807 -34.6817 -1.5
      vertex 66.3 -34.84 -1.5
    endloop
  endfacet
  facet normal 0 1 0
    outer loop
      vertex 66.3 -34.84 1.5
      vertex 66.3 -34.84 -1.5
      vertex -66.3 -34.84 1.5
    endloop
  endfacet
  facet normal 0 1 0
    outer loop
      vertex -66.3 -34.84 1.5
      vertex 66.3 -34.84 -1.5
      vertex -66.3 -34.84 -1.5
    endloop
  endfacet
  facet normal 0.198766 0.980047 0
    outer loop
      vertex -66.3 -34.84 1.5
      vertex -66.3 -34.84 -1.5
      vertex -67.0807 -34.6817 1.5
    endloop
  endfacet
  facet normal 0.198766 0.980047 0
    outer loop
      vertex -67.0807 -34.6817 1.5
      vertex -66.3 -34.84 -1.5
      vertex -67.0807 -34.6817 -1.5
    endloop
  endfacet
  facet normal 0.563033 0.826435 0
    outer loop
      vertex -67.0807 -34.6817 1.5
      vertex -67.0807 -34.6817 -1.5
      vertex -67.7425 -34.2308 1.5
    endloop
  endfacet
  facet normal 0.563033 0.826435 0
    outer loop
      vertex -67.7425 -34.2308 1.5
      vertex -67.0807 -34.6817 -1.5
      vertex -67.7425 -34.2308 -1.5
    endloop
  endfacet
  facet normal 0.836401 0.548117 0
    outer loop
      vertex -68.1847 -33.556 1.5
      vertex -67.7425 -34.2308 1.5
      vertex -67.7425 -34.2308 -1.5
    endloop
  endfacet
  facet normal 0.836401 0.548117 0
    outer loop
      vertex -68.1847 -33.556 -1.5
      vertex -68.1847 -33.556 1.5
      vertex -67.7425 -34.2308 -1.5
    endloop
  endfacet
  facet normal 0.981497 0.191477 0
    outer loop
      vertex -68.34 -32.76 1.5
      vertex -68.1847 -33.556 1.5
      vertex -68.1847 -33.556 -1.5
    endloop
  endfacet
  facet normal 0.981497 0.191477 0
    outer loop
      vertex -68.34 -32.76 -1.5
      vertex -68.34 -32.76 1.5
      vertex -68.1847 -33.556 -1.5
    endloop
  endfacet
endsolid OpenSCAD_Model
