solid OpenSCAD_Model
  facet normal 2.99188e-17 -0.969698 -0.244306
    outer loop
      vertex 97.27 -49.0507 1.19121e-14
      vertex 109.6 -60.388 45
      vertex -109.6 -60.388 45
    endloop
  endfacet
  facet normal 2.99188e-17 -0.969698 -0.244306
    outer loop
      vertex -97.27 -49.0507 -1.19121e-14
      vertex 97.27 -49.0507 1.19121e-14
      vertex -109.6 -60.388 45
    endloop
  endfacet
  facet normal -1.22465e-16 0 1
    outer loop
      vertex 105.587 -56.3757 45
      vertex 109.6 -60.388 45
      vertex 109.6 60.388 45
    endloop
  endfacet
  facet normal -1.22465e-16 0 1
    outer loop
      vertex 105.587 -56.3757 45
      vertex -105.587 -56.3757 45
      vertex -109.6 -60.388 45
    endloop
  endfacet
  facet normal -1.22465e-16 0 1
    outer loop
      vertex -109.6 -60.388 45
      vertex 109.6 -60.388 45
      vertex 105.587 -56.3757 45
    endloop
  endfacet
  facet normal -1.22465e-16 0 1
    outer loop
      vertex -105.587 60.388 45
      vertex -109.6 -60.388 45
      vertex -105.587 -56.3757 45
    endloop
  endfacet
  facet normal -1.22465e-16 0 1
    outer loop
      vertex -109.6 60.388 45
      vertex -109.6 -60.388 45
      vertex -105.587 60.388 45
    endloop
  endfacet
  facet normal -1.22465e-16 0 1
    outer loop
      vertex 105.587 60.388 45
      vertex 105.587 -56.3757 45
      vertex 109.6 60.388 45
    endloop
  endfacet
  facet normal 0.964452 0 -0.26426
    outer loop
      vertex 109.6 60.388 45
      vertex 109.6 -60.388 45
      vertex 97.27 -49.0507 1.19121e-14
    endloop
  endfacet
  facet normal 0.964452 0 -0.26426
    outer loop
      vertex 97.27 60.388 1.19121e-14
      vertex 109.6 60.388 45
      vertex 97.27 -49.0507 1.19121e-14
    endloop
  endfacet
  facet normal 1.22465e-16 0 -1
    outer loop
      vertex 97.27 -49.0507 1.19121e-14
      vertex -97.27 -49.0507 -1.19121e-14
      vertex 97.27 60.388 1.19121e-14
    endloop
  endfacet
  facet normal 1.22465e-16 0 -1
    outer loop
      vertex 97.27 60.388 1.19121e-14
      vertex -97.27 -49.0507 -1.19121e-14
      vertex -97.27 60.388 -1.19121e-14
    endloop
  endfacet
  facet normal -0.964452 0 -0.26426
    outer loop
      vertex -97.27 -49.0507 -1.19121e-14
      vertex -109.6 -60.388 45
      vertex -97.27 60.388 -1.19121e-14
    endloop
  endfacet
  facet normal -0.964452 0 -0.26426
    outer loop
      vertex -97.27 60.388 -1.19121e-14
      vertex -109.6 -60.388 45
      vertex -109.6 60.388 45
    endloop
  endfacet
  facet normal 0 1 0
    outer loop
      vertex 94.893 60.388 5
      vertex 97.27 60.388 1.19121e-14
      vertex -94.893 60.388 5
    endloop
  endfacet
  facet normal 0 1 0
    outer loop
      vertex -97.27 60.388 -1.19121e-14
      vertex -109.6 60.388 45
      vertex -94.893 60.388 5
    endloop
  endfacet
  facet normal 0 1 0
    outer loop
      vertex -97.27 60.388 -1.19121e-14
      vertex -94.893 60.388 5
      vertex 97.27 60.388 1.19121e-14
    endloop
  endfacet
  facet normal 0 1 0
    outer loop
      vertex 97.27 60.388 1.19121e-14
      vertex 94.893 60.388 5
      vertex 105.587 60.388 45
    endloop
  endfacet
  facet normal 0 1 0
    outer loop
      vertex 97.27 60.388 1.19121e-14
      vertex 105.587 60.388 45
      vertex 109.6 60.388 45
    endloop
  endfacet
  facet normal 0 1 0
    outer loop
      vertex -94.893 60.388 5
      vertex -109.6 60.388 45
      vertex -105.587 60.388 45
    endloop
  endfacet
  facet normal 0.966072 0 0.258272
    outer loop
      vertex -94.893 60.388 5
      vertex -105.587 60.388 45
      vertex -105.587 -56.3757 45
    endloop
  endfacet
  facet normal 0.966072 0 0.258272
    outer loop
      vertex -94.893 -46.5756 5
      vertex -94.893 60.388 5
      vertex -105.587 -56.3757 45
    endloop
  endfacet
  facet normal -2.91423e-17 0.971274 0.237965
    outer loop
      vertex -94.893 -46.5756 5
      vertex -105.587 -56.3757 45
      vertex 94.893 -46.5756 5
    endloop
  endfacet
  facet normal -2.91423e-17 0.971274 0.237965
    outer loop
      vertex 94.893 -46.5756 5
      vertex -105.587 -56.3757 45
      vertex 105.587 -56.3757 45
    endloop
  endfacet
  facet normal -0.966072 0 0.258272
    outer loop
      vertex 94.893 60.388 5
      vertex 94.893 -46.5756 5
      vertex 105.587 60.388 45
    endloop
  endfacet
  facet normal -0.966072 0 0.258272
    outer loop
      vertex 105.587 60.388 45
      vertex 94.893 -46.5756 5
      vertex 105.587 -56.3757 45
    endloop
  endfacet
  facet normal -1.22465e-16 0 1
    outer loop
      vertex -94.893 -46.5756 5
      vertex 94.893 -46.5756 5
      vertex 94.893 60.388 5
    endloop
  endfacet
  facet normal -1.22465e-16 0 1
    outer loop
      vertex -94.893 60.388 5
      vertex -94.893 -46.5756 5
      vertex 94.893 60.388 5
    endloop
  endfacet
endsolid OpenSCAD_Model
