solid OpenSCAD_Model
  facet normal 0.964452 0 -0.26426
    outer loop
      vertex 102.75 -40.388 1.25832e-14
      vertex 102.75 34.0895 1.25832e-14
      vertex 109.6 40.388 25
    endloop
  endfacet
  facet normal 0.964452 0 -0.26426
    outer loop
      vertex 109.6 -40.388 25
      vertex 102.75 -40.388 1.25832e-14
      vertex 109.6 40.388 25
    endloop
  endfacet
  facet normal 0 -1 0
    outer loop
      vertex 102.75 -40.388 1.25832e-14
      vertex 109.6 -40.388 25
      vertex 105.587 -40.388 25
    endloop
  endfacet
  facet normal 0 -1 0
    outer loop
      vertex -100.24 -40.388 5
      vertex 102.75 -40.388 1.25832e-14
      vertex 100.24 -40.388 5
    endloop
  endfacet
  facet normal 0 -1 0
    outer loop
      vertex 100.24 -40.388 5
      vertex 102.75 -40.388 1.25832e-14
      vertex 105.587 -40.388 25
    endloop
  endfacet
  facet normal 0 -1 0
    outer loop
      vertex -102.75 -40.388 -1.25832e-14
      vertex 102.75 -40.388 1.25832e-14
      vertex -100.24 -40.388 5
    endloop
  endfacet
  facet normal 0 -1 0
    outer loop
      vertex -109.6 -40.388 25
      vertex -100.24 -40.388 5
      vertex -105.587 -40.388 25
    endloop
  endfacet
  facet normal 0 -1 0
    outer loop
      vertex -102.75 -40.388 -1.25832e-14
      vertex -100.24 -40.388 5
      vertex -109.6 -40.388 25
    endloop
  endfacet
  facet normal -1.22465e-16 0 1
    outer loop
      vertex -105.587 36.3757 25
      vertex -109.6 40.388 25
      vertex -109.6 -40.388 25
    endloop
  endfacet
  facet normal -1.22465e-16 0 1
    outer loop
      vertex -105.587 36.3757 25
      vertex 105.587 36.3757 25
      vertex 109.6 40.388 25
    endloop
  endfacet
  facet normal -1.22465e-16 0 1
    outer loop
      vertex 109.6 40.388 25
      vertex -109.6 40.388 25
      vertex -105.587 36.3757 25
    endloop
  endfacet
  facet normal -1.22465e-16 0 1
    outer loop
      vertex 105.587 -40.388 25
      vertex 109.6 40.388 25
      vertex 105.587 36.3757 25
    endloop
  endfacet
  facet normal -1.22465e-16 0 1
    outer loop
      vertex 109.6 -40.388 25
      vertex 109.6 40.388 25
      vertex 105.587 -40.388 25
    endloop
  endfacet
  facet normal -1.22465e-16 0 1
    outer loop
      vertex -105.587 -40.388 25
      vertex -105.587 36.3757 25
      vertex -109.6 -40.388 25
    endloop
  endfacet
  facet normal 1.22465e-16 0 -1
    outer loop
      vertex -102.75 34.0895 -1.25832e-14
      vertex 102.75 34.0895 1.25832e-14
      vertex -102.75 -40.388 -1.25832e-14
    endloop
  endfacet
  facet normal 1.22465e-16 0 -1
    outer loop
      vertex 96.8019 10.4798 1.18548e-14
      vertex 102.75 34.0895 1.25832e-14
      vertex 102.75 -40.388 1.25832e-14
    endloop
  endfacet
  facet normal 1.22465e-16 0 -1
    outer loop
      vertex 95.445 11.5619 1.16886e-14
      vertex 102.75 34.0895 1.25832e-14
      vertex 96.8019 10.4798 1.18548e-14
    endloop
  endfacet
  facet normal 1.22465e-16 0 -1
    outer loop
      vertex 96.8019 8.74423 1.18548e-14
      vertex 96.8019 10.4798 1.18548e-14
      vertex 102.75 -40.388 1.25832e-14
    endloop
  endfacet
  facet normal 1.22465e-16 0 -1
    outer loop
      vertex 93.753 11.1757 1.14814e-14
      vertex 102.75 34.0895 1.25832e-14
      vertex 95.445 11.5619 1.16886e-14
    endloop
  endfacet
  facet normal 1.22465e-16 0 -1
    outer loop
      vertex -102.75 -40.388 -1.25832e-14
      vertex 102.75 34.0895 1.25832e-14
      vertex 93.753 11.1757 1.14814e-14
    endloop
  endfacet
  facet normal 1.22465e-16 0 -1
    outer loop
      vertex 93.753 8.04834 1.14814e-14
      vertex -102.75 -40.388 -1.25832e-14
      vertex 93 9.612 1.13892e-14
    endloop
  endfacet
  facet normal 1.22465e-16 0 -1
    outer loop
      vertex -102.75 -40.388 -1.25832e-14
      vertex 93.753 8.04834 1.14814e-14
      vertex 102.75 -40.388 1.25832e-14
    endloop
  endfacet
  facet normal 1.22465e-16 0 -1
    outer loop
      vertex 93.753 8.04834 1.14814e-14
      vertex 95.445 7.66214 1.16886e-14
      vertex 102.75 -40.388 1.25832e-14
    endloop
  endfacet
  facet normal 1.22465e-16 0 -1
    outer loop
      vertex 95.445 7.66214 1.16886e-14
      vertex 96.8019 8.74423 1.18548e-14
      vertex 102.75 -40.388 1.25832e-14
    endloop
  endfacet
  facet normal 1.22465e-16 0 -1
    outer loop
      vertex 93 9.612 1.13892e-14
      vertex -102.75 -40.388 -1.25832e-14
      vertex 93.753 11.1757 1.14814e-14
    endloop
  endfacet
  facet normal 2.99188e-17 0.969698 -0.244306
    outer loop
      vertex -102.75 34.0895 -1.25832e-14
      vertex -109.6 40.388 25
      vertex 102.75 34.0895 1.25832e-14
    endloop
  endfacet
  facet normal 2.99188e-17 0.969698 -0.244306
    outer loop
      vertex 102.75 34.0895 1.25832e-14
      vertex -109.6 40.388 25
      vertex 109.6 40.388 25
    endloop
  endfacet
  facet normal -0.964452 0 -0.26426
    outer loop
      vertex -109.6 40.388 25
      vertex -102.75 34.0895 -1.25832e-14
      vertex -109.6 -40.388 25
    endloop
  endfacet
  facet normal -0.964452 0 -0.26426
    outer loop
      vertex -109.6 -40.388 25
      vertex -102.75 34.0895 -1.25832e-14
      vertex -102.75 -40.388 -1.25832e-14
    endloop
  endfacet
  facet normal 0.966072 0 0.258272
    outer loop
      vertex -105.587 -40.388 25
      vertex -100.24 -40.388 5
      vertex -100.24 31.4757 5
    endloop
  endfacet
  facet normal 0.966072 0 0.258272
    outer loop
      vertex -105.587 36.3757 25
      vertex -105.587 -40.388 25
      vertex -100.24 31.4757 5
    endloop
  endfacet
  facet normal -1.22465e-16 0 1
    outer loop
      vertex 100.24 31.4757 5
      vertex -100.24 31.4757 5
      vertex -100.24 -40.388 5
    endloop
  endfacet
  facet normal -1.22465e-16 0 1
    outer loop
      vertex 93 9.612 5
      vertex 100.24 31.4757 5
      vertex -100.24 -40.388 5
    endloop
  endfacet
  facet normal -1.22465e-16 0 1
    outer loop
      vertex 93.753 11.1757 5
      vertex 95.445 11.5619 5
      vertex 100.24 31.4757 5
    endloop
  endfacet
  facet normal -1.22465e-16 0 1
    outer loop
      vertex 100.24 -40.388 5
      vertex 100.24 31.4757 5
      vertex 96.8019 8.74423 5
    endloop
  endfacet
  facet normal -1.22465e-16 0 1
    outer loop
      vertex 100.24 -40.388 5
      vertex 95.445 7.66214 5
      vertex -100.24 -40.388 5
    endloop
  endfacet
  facet normal -1.22465e-16 0 1
    outer loop
      vertex 100.24 -40.388 5
      vertex 96.8019 8.74423 5
      vertex 95.445 7.66214 5
    endloop
  endfacet
  facet normal -1.22465e-16 0 1
    outer loop
      vertex 93.753 8.04834 5
      vertex 93 9.612 5
      vertex -100.24 -40.388 5
    endloop
  endfacet
  facet normal -1.22465e-16 0 1
    outer loop
      vertex 93.753 11.1757 5
      vertex 100.24 31.4757 5
      vertex 93 9.612 5
    endloop
  endfacet
  facet normal -1.22465e-16 0 1
    outer loop
      vertex 96.8019 10.4798 5
      vertex 100.24 31.4757 5
      vertex 95.445 11.5619 5
    endloop
  endfacet
  facet normal -1.22465e-16 0 1
    outer loop
      vertex 96.8019 8.74423 5
      vertex 100.24 31.4757 5
      vertex 96.8019 10.4798 5
    endloop
  endfacet
  facet normal -1.22465e-16 0 1
    outer loop
      vertex 95.445 7.66214 5
      vertex 93.753 8.04834 5
      vertex -100.24 -40.388 5
    endloop
  endfacet
  facet normal -0.966072 0 0.258272
    outer loop
      vertex 105.587 -40.388 25
      vertex 105.587 36.3757 25
      vertex 100.24 -40.388 5
    endloop
  endfacet
  facet normal -0.966072 0 0.258272
    outer loop
      vertex 100.24 -40.388 5
      vertex 105.587 36.3757 25
      vertex 100.24 31.4757 5
    endloop
  endfacet
  facet normal -2.91423e-17 -0.971274 0.237965
    outer loop
      vertex 100.24 31.4757 5
      vertex 105.587 36.3757 25
      vertex -105.587 36.3757 25
    endloop
  endfacet
  facet normal -2.91423e-17 -0.971274 0.237965
    outer loop
      vertex -100.24 31.4757 5
      vertex 100.24 31.4757 5
      vertex -105.587 36.3757 25
    endloop
  endfacet
  facet normal -0.62349 -0.781831 -7.63555e-17
    outer loop
      vertex 95.445 11.5619 5
      vertex 95.445 11.5619 1.16886e-14
      vertex 96.8019 10.4798 1.18548e-14
    endloop
  endfacet
  facet normal -0.62349 -0.781831 -7.63555e-17
    outer loop
      vertex 96.8019 10.4798 5
      vertex 95.445 11.5619 5
      vertex 96.8019 10.4798 1.18548e-14
    endloop
  endfacet
  facet normal -1 0 -1.22465e-16
    outer loop
      vertex 96.8019 10.4798 1.18548e-14
      vertex 96.8019 8.74423 1.18548e-14
      vertex 96.8019 10.4798 5
    endloop
  endfacet
  facet normal -1 0 -1.22465e-16
    outer loop
      vertex 96.8019 10.4798 5
      vertex 96.8019 8.74423 1.18548e-14
      vertex 96.8019 8.74423 5
    endloop
  endfacet
  facet normal -0.62349 0.781831 -7.63555e-17
    outer loop
      vertex 95.445 7.66214 1.16886e-14
      vertex 95.445 7.66214 5
      vertex 96.8019 8.74423 1.18548e-14
    endloop
  endfacet
  facet normal -0.62349 0.781831 -7.63555e-17
    outer loop
      vertex 96.8019 8.74423 1.18548e-14
      vertex 95.445 7.66214 5
      vertex 96.8019 8.74423 5
    endloop
  endfacet
  facet normal 0.222521 0.974928 2.7251e-17
    outer loop
      vertex 93.753 8.04834 1.14814e-14
      vertex 93.753 8.04834 5
      vertex 95.445 7.66214 1.16886e-14
    endloop
  endfacet
  facet normal 0.222521 0.974928 2.7251e-17
    outer loop
      vertex 95.445 7.66214 1.16886e-14
      vertex 93.753 8.04834 5
      vertex 95.445 7.66214 5
    endloop
  endfacet
  facet normal 0.900969 0.433884 1.10337e-16
    outer loop
      vertex 93.753 8.04834 1.14814e-14
      vertex 93 9.612 1.13892e-14
      vertex 93 9.612 5
    endloop
  endfacet
  facet normal 0.900969 0.433884 1.10337e-16
    outer loop
      vertex 93.753 8.04834 5
      vertex 93.753 8.04834 1.14814e-14
      vertex 93 9.612 5
    endloop
  endfacet
  facet normal 0.900969 -0.433884 1.10337e-16
    outer loop
      vertex 93 9.612 5
      vertex 93 9.612 1.13892e-14
      vertex 93.753 11.1757 1.14814e-14
    endloop
  endfacet
  facet normal 0.900969 -0.433884 1.10337e-16
    outer loop
      vertex 93.753 11.1757 5
      vertex 93 9.612 5
      vertex 93.753 11.1757 1.14814e-14
    endloop
  endfacet
  facet normal 0.222521 -0.974928 2.7251e-17
    outer loop
      vertex 93.753 11.1757 5
      vertex 93.753 11.1757 1.14814e-14
      vertex 95.445 11.5619 1.16886e-14
    endloop
  endfacet
  facet normal 0.222521 -0.974928 2.7251e-17
    outer loop
      vertex 95.445 11.5619 5
      vertex 93.753 11.1757 5
      vertex 95.445 11.5619 1.16886e-14
    endloop
  endfacet
endsolid OpenSCAD_Model
