  0
SECTION
  2
BLOCKS
  0
ENDSEC
  0
SECTION
  2
ENTITIES
  0
LINE
  8
0
 10
-109.6
 11
-109.6
 20
-97.776
 21
97.776
  0
LINE
  8
0
 10
-109.6
 11
-109.027
 20
97.776
 21
99.539
  0
LINE
  8
0
 10
-109.027
 11
-107.527
 20
99.539
 21
100.629
  0
LINE
  8
0
 10
-107.527
 11
-106.6
 20
100.629
 21
100.629
  0
LINE
  8
0
 10
-106.6
 11
-106.6
 20
100.629
 21
100.776
  0
LINE
  8
0
 10
-106.6
 11
106.6
 20
100.776
 21
100.776
  0
LINE
  8
0
 10
106.6
 11
106.6
 20
100.776
 21
100.629
  0
LINE
  8
0
 10
106.6
 11
107.527
 20
100.629
 21
100.629
  0
LINE
  8
0
 10
107.527
 11
109.027
 20
100.629
 21
99.539
  0
LINE
  8
0
 10
109.027
 11
109.6
 20
99.539
 21
97.776
  0
LINE
  8
0
 10
109.6
 11
109.6
 20
97.776
 21
-97.776
  0
LINE
  8
0
 10
109.6
 11
109.027
 20
-97.776
 21
-99.539
  0
LINE
  8
0
 10
109.027
 11
107.527
 20
-99.539
 21
-100.629
  0
LINE
  8
0
 10
107.527
 11
106.6
 20
-100.629
 21
-100.629
  0
LINE
  8
0
 10
106.6
 11
106.6
 20
-100.629
 21
-100.776
  0
LINE
  8
0
 10
106.6
 11
-106.6
 20
-100.776
 21
-100.776
  0
LINE
  8
0
 10
-106.6
 11
-106.6
 20
-100.776
 21
-100.629
  0
LINE
  8
0
 10
-106.6
 11
-107.527
 20
-100.629
 21
-100.629
  0
LINE
  8
0
 10
-107.527
 11
-109.027
 20
-100.629
 21
-99.539
  0
LINE
  8
0
 10
-109.027
 11
-109.6
 20
-99.539
 21
-97.776
  0
LINE
  8
0
 10
-91.6
 11
-91.6
 20
-8.5
 21
8.5
  0
LINE
  8
0
 10
-91.6
 11
-87.6
 20
8.5
 21
8.5
  0
LINE
  8
0
 10
-87.6
 11
-87.6
 20
8.5
 21
-8.5
  0
LINE
  8
0
 10
-87.6
 11
-91.6
 20
-8.5
 21
-8.5
  0
LINE
  8
0
 10
-68.34
 11
-68.34
 20
-32.76
 21
32.76
  0
LINE
  8
0
 10
-68.34
 11
-68.185
 20
32.76
 21
33.556
  0
LINE
  8
0
 10
-68.185
 11
-67.742
 20
33.556
 21
34.231
  0
LINE
  8
0
 10
-67.742
 11
-67.081
 20
34.231
 21
34.682
  0
LINE
  8
0
 10
-67.081
 11
-66.3
 20
34.682
 21
34.84
  0
LINE
  8
0
 10
-66.3
 11
66.3
 20
34.84
 21
34.84
  0
LINE
  8
0
 10
66.3
 11
67.081
 20
34.84
 21
34.682
  0
LINE
  8
0
 10
67.081
 11
67.742
 20
34.682
 21
34.231
  0
LINE
  8
0
 10
67.742
 11
68.185
 20
34.231
 21
33.556
  0
LINE
  8
0
 10
68.185
 11
68.34
 20
33.556
 21
32.76
  0
LINE
  8
0
 10
68.34
 11
68.34
 20
32.76
 21
-32.76
  0
LINE
  8
0
 10
68.34
 11
68.185
 20
-32.76
 21
-33.556
  0
LINE
  8
0
 10
68.185
 11
67.742
 20
-33.556
 21
-34.231
  0
LINE
  8
0
 10
67.742
 11
67.081
 20
-34.231
 21
-34.682
  0
LINE
  8
0
 10
67.081
 11
66.3
 20
-34.682
 21
-34.84
  0
LINE
  8
0
 10
66.3
 11
-66.3
 20
-34.84
 21
-34.84
  0
LINE
  8
0
 10
-66.3
 11
-67.081
 20
-34.84
 21
-34.682
  0
LINE
  8
0
 10
-67.081
 11
-67.742
 20
-34.682
 21
-34.231
  0
LINE
  8
0
 10
-67.742
 11
-68.185
 20
-34.231
 21
-33.556
  0
LINE
  8
0
 10
-68.185
 11
-68.34
 20
-33.556
 21
-32.76
  0
LINE
  8
0
 10
-61.7
 11
-61.667
 20
-90.276
 21
-89.944
  0
LINE
  8
0
 10
-61.667
 11
-61.571
 20
-89.944
 21
-89.625
  0
LINE
  8
0
 10
-61.571
 11
-61.413
 20
-89.625
 21
-89.332
  0
LINE
  8
0
 10
-61.413
 11
-61.202
 20
-89.332
 21
-89.074
  0
LINE
  8
0
 10
-61.202
 11
-60.944
 20
-89.074
 21
-88.863
  0
LINE
  8
0
 10
-60.944
 11
-60.651
 20
-88.863
 21
-88.705
  0
LINE
  8
0
 10
-60.651
 11
-60.332
 20
-88.705
 21
-88.609
  0
LINE
  8
0
 10
-60.332
 11
-60
 20
-88.609
 21
-88.576
  0
LINE
  8
0
 10
-60
 11
-59.668
 20
-88.576
 21
-88.609
  0
LINE
  8
0
 10
-59.668
 11
-59.349
 20
-88.609
 21
-88.705
  0
LINE
  8
0
 10
-59.349
 11
-59.056
 20
-88.705
 21
-88.863
  0
LINE
  8
0
 10
-59.056
 11
-58.798
 20
-88.863
 21
-89.074
  0
LINE
  8
0
 10
-58.798
 11
-58.587
 20
-89.074
 21
-89.332
  0
LINE
  8
0
 10
-58.587
 11
-58.429
 20
-89.332
 21
-89.625
  0
LINE
  8
0
 10
-58.429
 11
-58.333
 20
-89.625
 21
-89.944
  0
LINE
  8
0
 10
-58.333
 11
-58.3
 20
-89.944
 21
-90.276
  0
LINE
  8
0
 10
-58.3
 11
-58.333
 20
-90.276
 21
-90.608
  0
LINE
  8
0
 10
-58.333
 11
-58.429
 20
-90.608
 21
-90.927
  0
LINE
  8
0
 10
-58.429
 11
-58.587
 20
-90.927
 21
-91.22
  0
LINE
  8
0
 10
-58.587
 11
-58.798
 20
-91.22
 21
-91.478
  0
LINE
  8
0
 10
-58.798
 11
-59.056
 20
-91.478
 21
-91.689
  0
LINE
  8
0
 10
-59.056
 11
-59.349
 20
-91.689
 21
-91.847
  0
LINE
  8
0
 10
-59.349
 11
-59.668
 20
-91.847
 21
-91.943
  0
LINE
  8
0
 10
-59.668
 11
-60
 20
-91.943
 21
-91.976
  0
LINE
  8
0
 10
-60
 11
-60.332
 20
-91.976
 21
-91.943
  0
LINE
  8
0
 10
-60.332
 11
-60.651
 20
-91.943
 21
-91.847
  0
LINE
  8
0
 10
-60.651
 11
-60.944
 20
-91.847
 21
-91.689
  0
LINE
  8
0
 10
-60.944
 11
-61.202
 20
-91.689
 21
-91.478
  0
LINE
  8
0
 10
-61.202
 11
-61.413
 20
-91.478
 21
-91.22
  0
LINE
  8
0
 10
-61.413
 11
-61.571
 20
-91.22
 21
-90.927
  0
LINE
  8
0
 10
-61.571
 11
-61.667
 20
-90.927
 21
-90.608
  0
LINE
  8
0
 10
-61.667
 11
-61.7
 20
-90.608
 21
-90.276
  0
LINE
  8
0
 10
-61.7
 11
-61.667
 20
90.276
 21
90.608
  0
LINE
  8
0
 10
-61.667
 11
-61.571
 20
90.608
 21
90.927
  0
LINE
  8
0
 10
-61.571
 11
-61.413
 20
90.927
 21
91.22
  0
LINE
  8
0
 10
-61.413
 11
-61.202
 20
91.22
 21
91.478
  0
LINE
  8
0
 10
-61.202
 11
-60.944
 20
91.478
 21
91.689
  0
LINE
  8
0
 10
-60.944
 11
-60.651
 20
91.689
 21
91.847
  0
LINE
  8
0
 10
-60.651
 11
-60.332
 20
91.847
 21
91.943
  0
LINE
  8
0
 10
-60.332
 11
-60
 20
91.943
 21
91.976
  0
LINE
  8
0
 10
-60
 11
-59.668
 20
91.976
 21
91.943
  0
LINE
  8
0
 10
-59.668
 11
-59.349
 20
91.943
 21
91.847
  0
LINE
  8
0
 10
-59.349
 11
-59.056
 20
91.847
 21
91.689
  0
LINE
  8
0
 10
-59.056
 11
-58.798
 20
91.689
 21
91.478
  0
LINE
  8
0
 10
-58.798
 11
-58.587
 20
91.478
 21
91.22
  0
LINE
  8
0
 10
-58.587
 11
-58.429
 20
91.22
 21
90.927
  0
LINE
  8
0
 10
-58.429
 11
-58.333
 20
90.927
 21
90.608
  0
LINE
  8
0
 10
-58.333
 11
-58.3
 20
90.608
 21
90.276
  0
LINE
  8
0
 10
-58.3
 11
-58.333
 20
90.276
 21
89.944
  0
LINE
  8
0
 10
-58.333
 11
-58.429
 20
89.944
 21
89.625
  0
LINE
  8
0
 10
-58.429
 11
-58.587
 20
89.625
 21
89.332
  0
LINE
  8
0
 10
-58.587
 11
-58.798
 20
89.332
 21
89.074
  0
LINE
  8
0
 10
-58.798
 11
-59.056
 20
89.074
 21
88.863
  0
LINE
  8
0
 10
-59.056
 11
-59.349
 20
88.863
 21
88.705
  0
LINE
  8
0
 10
-59.349
 11
-59.668
 20
88.705
 21
88.609
  0
LINE
  8
0
 10
-59.668
 11
-60
 20
88.609
 21
88.576
  0
LINE
  8
0
 10
-60
 11
-60.332
 20
88.576
 21
88.609
  0
LINE
  8
0
 10
-60.332
 11
-60.651
 20
88.609
 21
88.705
  0
LINE
  8
0
 10
-60.651
 11
-60.944
 20
88.705
 21
88.863
  0
LINE
  8
0
 10
-60.944
 11
-61.202
 20
88.863
 21
89.074
  0
LINE
  8
0
 10
-61.202
 11
-61.413
 20
89.074
 21
89.332
  0
LINE
  8
0
 10
-61.413
 11
-61.571
 20
89.332
 21
89.625
  0
LINE
  8
0
 10
-61.571
 11
-61.667
 20
89.625
 21
89.944
  0
LINE
  8
0
 10
-61.667
 11
-61.7
 20
89.944
 21
90.276
  0
LINE
  8
0
 10
58.3
 11
58.333
 20
-90.276
 21
-89.944
  0
LINE
  8
0
 10
58.333
 11
58.429
 20
-89.944
 21
-89.625
  0
LINE
  8
0
 10
58.429
 11
58.587
 20
-89.625
 21
-89.332
  0
LINE
  8
0
 10
58.587
 11
58.798
 20
-89.332
 21
-89.074
  0
LINE
  8
0
 10
58.798
 11
59.056
 20
-89.074
 21
-88.863
  0
LINE
  8
0
 10
59.056
 11
59.349
 20
-88.863
 21
-88.705
  0
LINE
  8
0
 10
59.349
 11
59.668
 20
-88.705
 21
-88.609
  0
LINE
  8
0
 10
59.668
 11
60
 20
-88.609
 21
-88.576
  0
LINE
  8
0
 10
60
 11
60.332
 20
-88.576
 21
-88.609
  0
LINE
  8
0
 10
60.332
 11
60.651
 20
-88.609
 21
-88.705
  0
LINE
  8
0
 10
60.651
 11
60.944
 20
-88.705
 21
-88.863
  0
LINE
  8
0
 10
60.944
 11
61.202
 20
-88.863
 21
-89.074
  0
LINE
  8
0
 10
61.202
 11
61.413
 20
-89.074
 21
-89.332
  0
LINE
  8
0
 10
61.413
 11
61.571
 20
-89.332
 21
-89.625
  0
LINE
  8
0
 10
61.571
 11
61.667
 20
-89.625
 21
-89.944
  0
LINE
  8
0
 10
61.667
 11
61.7
 20
-89.944
 21
-90.276
  0
LINE
  8
0
 10
61.7
 11
61.667
 20
-90.276
 21
-90.608
  0
LINE
  8
0
 10
61.667
 11
61.571
 20
-90.608
 21
-90.927
  0
LINE
  8
0
 10
61.571
 11
61.413
 20
-90.927
 21
-91.22
  0
LINE
  8
0
 10
61.413
 11
61.202
 20
-91.22
 21
-91.478
  0
LINE
  8
0
 10
61.202
 11
60.944
 20
-91.478
 21
-91.689
  0
LINE
  8
0
 10
60.944
 11
60.651
 20
-91.689
 21
-91.847
  0
LINE
  8
0
 10
60.651
 11
60.332
 20
-91.847
 21
-91.943
  0
LINE
  8
0
 10
60.332
 11
60
 20
-91.943
 21
-91.976
  0
LINE
  8
0
 10
60
 11
59.668
 20
-91.976
 21
-91.943
  0
LINE
  8
0
 10
59.668
 11
59.349
 20
-91.943
 21
-91.847
  0
LINE
  8
0
 10
59.349
 11
59.056
 20
-91.847
 21
-91.689
  0
LINE
  8
0
 10
59.056
 11
58.798
 20
-91.689
 21
-91.478
  0
LINE
  8
0
 10
58.798
 11
58.587
 20
-91.478
 21
-91.22
  0
LINE
  8
0
 10
58.587
 11
58.429
 20
-91.22
 21
-90.927
  0
LINE
  8
0
 10
58.429
 11
58.333
 20
-90.927
 21
-90.608
  0
LINE
  8
0
 10
58.333
 11
58.3
 20
-90.608
 21
-90.276
  0
LINE
  8
0
 10
58.3
 11
58.333
 20
90.276
 21
90.608
  0
LINE
  8
0
 10
58.333
 11
58.429
 20
90.608
 21
90.927
  0
LINE
  8
0
 10
58.429
 11
58.587
 20
90.927
 21
91.22
  0
LINE
  8
0
 10
58.587
 11
58.798
 20
91.22
 21
91.478
  0
LINE
  8
0
 10
58.798
 11
59.056
 20
91.478
 21
91.689
  0
LINE
  8
0
 10
59.056
 11
59.349
 20
91.689
 21
91.847
  0
LINE
  8
0
 10
59.349
 11
59.668
 20
91.847
 21
91.943
  0
LINE
  8
0
 10
59.668
 11
60
 20
91.943
 21
91.976
  0
LINE
  8
0
 10
60
 11
60.332
 20
91.976
 21
91.943
  0
LINE
  8
0
 10
60.332
 11
60.651
 20
91.943
 21
91.847
  0
LINE
  8
0
 10
60.651
 11
60.944
 20
91.847
 21
91.689
  0
LINE
  8
0
 10
60.944
 11
61.202
 20
91.689
 21
91.478
  0
LINE
  8
0
 10
61.202
 11
61.413
 20
91.478
 21
91.22
  0
LINE
  8
0
 10
61.413
 11
61.571
 20
91.22
 21
90.927
  0
LINE
  8
0
 10
61.571
 11
61.667
 20
90.927
 21
90.608
  0
LINE
  8
0
 10
61.667
 11
61.7
 20
90.608
 21
90.276
  0
LINE
  8
0
 10
61.7
 11
61.667
 20
90.276
 21
89.944
  0
LINE
  8
0
 10
61.667
 11
61.571
 20
89.944
 21
89.625
  0
LINE
  8
0
 10
61.571
 11
61.413
 20
89.625
 21
89.332
  0
LINE
  8
0
 10
61.413
 11
61.202
 20
89.332
 21
89.074
  0
LINE
  8
0
 10
61.202
 11
60.944
 20
89.074
 21
88.863
  0
LINE
  8
0
 10
60.944
 11
60.651
 20
88.863
 21
88.705
  0
LINE
  8
0
 10
60.651
 11
60.332
 20
88.705
 21
88.609
  0
LINE
  8
0
 10
60.332
 11
60
 20
88.609
 21
88.576
  0
LINE
  8
0
 10
60
 11
59.668
 20
88.576
 21
88.609
  0
LINE
  8
0
 10
59.668
 11
59.349
 20
88.609
 21
88.705
  0
LINE
  8
0
 10
59.349
 11
59.056
 20
88.705
 21
88.863
  0
LINE
  8
0
 10
59.056
 11
58.798
 20
88.863
 21
89.074
  0
LINE
  8
0
 10
58.798
 11
58.587
 20
89.074
 21
89.332
  0
LINE
  8
0
 10
58.587
 11
58.429
 20
89.332
 21
89.625
  0
LINE
  8
0
 10
58.429
 11
58.333
 20
89.625
 21
89.944
  0
LINE
  8
0
 10
58.333
 11
58.3
 20
89.944
 21
90.276
  0
LINE
  8
0
 10
87.6
 11
87.6
 20
-8.5
 21
8.5
  0
LINE
  8
0
 10
87.6
 11
91.6
 20
8.5
 21
8.5
  0
LINE
  8
0
 10
91.6
 11
91.6
 20
8.5
 21
-8.5
  0
LINE
  8
0
 10
91.6
 11
87.6
 20
-8.5
 21
-8.5
  0
ENDSEC
  0
SECTION
  2
OBJECTS
  0
DICTIONARY
  0
ENDSEC
  0
EOF
